<svg xmlns="http://www.w3.org/2000/svg" viewBox="0 0 100 100">
  <rect width="100" height="100" rx="22" ry="22" fill="#A2F0D3"/>
  <g transform="translate(50, 50)" fill="#0a0a0a">
    <path transform="rotate(0)"   d="M 0 -10 C 15 -10, 15 -35, 0 -35 C -15 -35, -15 -10, 0 -10 Z"/>
    <path transform="rotate(45)"  d="M 0 -10 C 15 -10, 15 -35, 0 -35 C -15 -35, -15 -10, 0 -10 Z"/>
    <path transform="rotate(90)"  d="M 0 -10 C 15 -10, 15 -35, 0 -35 C -15 -35, -15 -10, 0 -10 Z"/>
    <path transform="rotate(135)" d="M 0 -10 C 15 -10, 15 -35, 0 -35 C -15 -35, -15 -10, 0 -10 Z"/>
    <path transform="rotate(180)" d="M 0 -10 C 15 -10, 15 -35, 0 -35 C -15 -35, -15 -10, 0 -10 Z"/>
    <path transform="rotate(225)" d="M 0 -10 C 15 -10, 15 -35, 0 -35 C -15 -35, -15 -10, 0 -10 Z"/>
    <path transform="rotate(270)" d="M 0 -10 C 15 -10, 15 -35, 0 -35 C -15 -35, -15 -10, 0 -10 Z"/>
    <path transform="rotate(315)" d="M 0 -10 C 15 -10, 15 -35, 0 -35 C -15 -35, -15 -10, 0 -10 Z"/>
  </g>
</svg>
