<svg xmlns="http://www.w3.org/2000/svg" viewBox="0 0 100 100">
  <rect width="100" height="100" rx="26" ry="26" fill="#A2F0D3"/>
  <g transform="translate(50, 50)" fill="#1a1a1a">
    <path transform="rotate(0)"   d="M 0 -13 C 14 -13, 14 -38, 0 -38 C -14 -38, -14 -13, 0 -13 Z"/>
    <path transform="rotate(36)"  d="M 0 -13 C 14 -13, 14 -38, 0 -38 C -14 -38, -14 -13, 0 -13 Z"/>
    <path transform="rotate(72)"  d="M 0 -13 C 14 -13, 14 -38, 0 -38 C -14 -38, -14 -13, 0 -13 Z"/>
    <path transform="rotate(108)" d="M 0 -13 C 14 -13, 14 -38, 0 -38 C -14 -38, -14 -13, 0 -13 Z"/>
    <path transform="rotate(144)" d="M 0 -13 C 14 -13, 14 -38, 0 -38 C -14 -38, -14 -13, 0 -13 Z"/>
    <path transform="rotate(180)" d="M 0 -13 C 14 -13, 14 -38, 0 -38 C -14 -38, -14 -13, 0 -13 Z"/>
    <path transform="rotate(216)" d="M 0 -13 C 14 -13, 14 -38, 0 -38 C -14 -38, -14 -13, 0 -13 Z"/>
    <path transform="rotate(252)" d="M 0 -13 C 14 -13, 14 -38, 0 -38 C -14 -38, -14 -13, 0 -13 Z"/>
    <path transform="rotate(288)" d="M 0 -13 C 14 -13, 14 -38, 0 -38 C -14 -38, -14 -13, 0 -13 Z"/>
    <path transform="rotate(324)" d="M 0 -13 C 14 -13, 14 -38, 0 -38 C -14 -38, -14 -13, 0 -13 Z"/>
  </g>
</svg>
